<svg width="14" height="14" viewBox="0 0 14 14" fill="none" xmlns="http://www.w3.org/2000/svg">
<path d="M5.65595 6.20534C5.69445 5.97784 5.76445 5.77484 5.86595 5.59634C5.96745 5.41784 6.10745 5.27434 6.27895 5.16584C6.44345 5.06434 6.64995 5.00834 6.90545 5.00484C7.07345 5.00834 7.22745 5.03634 7.36045 5.09584C7.50395 5.15884 7.62295 5.24284 7.72445 5.34784C7.82595 5.45284 7.90295 5.57884 7.95895 5.71884C8.01495 5.85884 8.04645 6.00934 8.05345 6.16684H9.30645C9.29595 5.83784 9.22945 5.53684 9.11395 5.26384C8.99845 4.99084 8.83045 4.75634 8.62045 4.55684C8.41045 4.35734 8.15845 4.20684 7.86445 4.09834C7.57045 3.98984 7.24495 3.93384 6.88795 3.93384C6.43295 3.93384 6.03745 4.01084 5.70145 4.16834C5.36545 4.32584 5.08545 4.53934 4.86145 4.81234C4.63745 5.08534 4.46945 5.40034 4.36095 5.76084C4.25245 6.12134 4.19995 6.50284 4.19995 6.90534V7.09785C4.19995 7.50385 4.25595 7.88535 4.36445 8.24585C4.47295 8.60635 4.64095 8.92135 4.86495 9.19085C5.08895 9.46035 5.36895 9.67385 5.70845 9.83135C6.04795 9.98885 6.44345 10.0659 6.89845 10.0659C7.22745 10.0659 7.53545 10.0134 7.82245 9.90485C8.10945 9.79635 8.36145 9.64935 8.57845 9.46035C8.79545 9.27135 8.97045 9.05435 9.09645 8.80235C9.22245 8.55035 9.29595 8.28435 9.30645 7.99735H8.05345C8.04645 8.14435 8.01145 8.27735 7.94845 8.40335C7.88545 8.52935 7.80145 8.63435 7.69645 8.72185C7.59145 8.80935 7.46895 8.87935 7.32895 8.92835C7.19595 8.97385 7.05595 8.99835 6.90545 8.99835C6.65345 8.99135 6.44695 8.93885 6.27895 8.83385C6.10395 8.72185 5.96395 8.57835 5.86245 8.39985C5.76095 8.22135 5.69095 8.01835 5.65245 7.78735C5.61395 7.55635 5.59995 7.33235 5.59995 7.09785V6.90534C5.59995 6.66734 5.61745 6.43284 5.65595 6.20534Z" fill="white"/>
<path d="M7 0C3.1325 0 0 3.1325 0 7C0 10.8675 3.1325 14 7 14C10.8675 14 14 10.8675 14 7C14 3.1325 10.8675 0 7 0ZM7 12.6C3.913 12.6 1.4 10.087 1.4 7C1.4 3.913 3.913 1.4 7 1.4C10.087 1.4 12.6 3.913 12.6 7C12.6 10.087 10.087 12.6 7 12.6Z" fill="white"/>
</svg>
